<svg id="Camada_1" data-name="Camada 1" xmlns="http://www.w3.org/2000/svg" viewBox="0 0 368.5 101.5"><defs><style>.cls-1{fill:#fefefe;}.cls-2{fill:#5047e4;}.cls-3{fill:#4f47e4;}.cls-4{fill:#4e44d8;}.cls-5{fill:#4c42d3;}.cls-6{fill:#5047dd;}.cls-7{fill:#5148e4;}.cls-8{fill:#fdfdfe;}.cls-9{fill:#f7f7fd;}.cls-10{fill:#fafafd;}.cls-11{fill:#f5f5fc;}.cls-12{fill:#fbfbfd;}.cls-13{fill:#4c42d4;}.cls-14{fill:#5047dc;}.cls-15{fill:#493fd5;}.cls-16{fill:#5047da;}.cls-17{fill:#f8f8fd;}.cls-18{fill:#5046d8;}</style></defs><path class="cls-1" d="M776,489h368.5V590.5H776Zm145.75,2.3a2.09,2.09,0,0,0-.25,0,29.67,29.67,0,0,0-24.19,36.51,28.5,28.5,0,0,0,13,17.93,28,28,0,0,0,11.12,4.3c.43.07,1.14.46,1.16.73.09,2.23.05,4.47.05,6.85-1.23-.14-2,.17-2,1.49q0,13.18,0,26.36c0,1.09.43,1.58,1.58,1.56,2.58,0,5.16,0,7.75,0,1.66,0,1.83-.17,1.83-1.89V559.87c0-2,0-2-1.92-2.43v-7.15l4.17-1c.2,0,.41,0,.61-.1,13.27-3.64,22.57-17.23,21.14-31-1-10.1-5.89-17.89-14.62-23.11a23.51,23.51,0,0,0-12.71-3.79C926.19,491.29,924,491.28,921.75,491.3ZM810.12,550c-.58-.66-1-1.13-1.38-1.59a11.21,11.21,0,0,0-6-3.87c-7.45-1.6-14,.23-19.24,5.78-4.18,4.42-5.68,9.89-5.59,15.93.14,10.44,7.1,20.35,19.38,21.12,4.75.3,8.92-.88,11.8-5l.62-1c.28,1.39.47,2.36.68,3.32a2.11,2.11,0,0,0,2.31,1.83c1.79,0,3.58,0,5.37,0a2.29,2.29,0,0,0,2.56-2.55q0-18.24,0-36.48c0-2-.9-2.84-2.92-2.93-1.42-.07-2.83-.11-4.25-.17a2.05,2.05,0,0,0-2.35,1.73C810.85,547.3,810.51,548.5,810.12,550Zm321.68,0a11.45,11.45,0,0,0-1.35-1.52c-1.53-1.19-3-2.7-4.69-3.4-5.18-2.1-10.37-1.34-15.18,1.19-7.95,4.19-11.12,11.26-11,19.94.19,11.59,7.92,20.47,19.33,21.15,3.43.21,6.78-.16,9.52-2.53,1.08-.94,2-2.08,3-3.16.09.49.19,1,.28,1.46s.17,1,.29,1.47a2.12,2.12,0,0,0,2.37,1.92c1.79,0,3.58,0,5.37,0a2.25,2.25,0,0,0,2.49-2.58q0-18.24,0-36.48c0-1.94-.82-2.8-2.79-2.9-1.37-.07-2.74-.07-4.12-.14-1.61-.07-2.2.33-2.61,1.86C1132.46,547.41,1132.17,548.56,1131.8,550Zm-115.27.17c-.4-.55-.58-.82-.78-1.08a12.86,12.86,0,0,0-11.35-5.1c-6.58.26-12,2.75-15.93,8.17-3.4,4.7-4.39,10-4,15.73a20.46,20.46,0,0,0,15.87,19c3.7.86,7.51,1.07,10.95-.83,1.87-1,3.39-2.7,5.08-4.09-.17-.19-.09-.15-.08-.09.18.86.33,1.72.51,2.57a2.18,2.18,0,0,0,2.49,2.09c1.7,0,3.41,0,5.12,0,1.89,0,2.66-.8,2.66-2.66q0-18.17,0-36.35c0-2-.82-2.85-2.86-3-1.45-.07-2.91-.11-4.36-.16a2,2,0,0,0-2.21,1.59C1017.31,547.2,1017,548.44,1016.53,550.14Zm-134,19.36h26c2.05,0,2.85-.67,3.22-2.68,2.13-11.68-7.24-22.79-19.25-23.15-12.62-.37-23.87,11.7-21.7,25.36C872.71,581,884,589.18,895.5,587.25a20.06,20.06,0,0,0,10.19-4.67,1.85,1.85,0,0,0,.38-2.74c-1-1.46-1.84-3-2.77-4.45s-1.47-1.53-3-.67c-1,.55-2,1.06-3,1.54a11.49,11.49,0,0,1-8.75.43A8.48,8.48,0,0,1,882.57,569.5Zm192.5,4,.73,1.14c2.15,3.41,4.31,6.82,6.45,10.24a3.37,3.37,0,0,0,3.23,1.68c3-.09,5.91,0,8.87,0,1.82,0,2.1-.46,1.22-2.07a12.51,12.51,0,0,0-.74-1.15l-5.16-7.51q-3.81-5.57-7.64-11.12c.26-.4.48-.75.72-1.09,4-5.56,7.91-11.12,11.83-16.71.33-.46.68-1.27.49-1.64s-1-.57-1.62-.58c-2.75-.06-5.5,0-8.24,0a3.52,3.52,0,0,0-3.07,1.38c-1.06,1.48-2.05,3-3,4.57-1.31,2.09-2.58,4.21-4,6.47-.37-.58-.6-.92-.81-1.27q-2.71-4.41-5.41-8.84a4.57,4.57,0,0,0-4.26-2.32c-2.54,0-5.08,0-7.62,0-.58,0-1.55.2-1.65.52a2.47,2.47,0,0,0,.47,1.78c1.94,2.86,3.94,5.67,5.92,8.5l6.42,9.19c-.31.46-.55.84-.81,1.22q-5.19,7.5-10.36,15c-.9,1.3-1.82,2.58-2.6,3.95s-.4,1.71,1.08,1.71c3.17,0,6.34.1,9.49,0a5.41,5.41,0,0,0,2.58-1.23,5.57,5.57,0,0,0,1.13-1.63Zm-222.39-8.84c.33-.5.63-1,.94-1.39,3.86-5.43,7.73-10.85,11.55-16.3a6.3,6.3,0,0,0,.61-1.79,7.29,7.29,0,0,0-1.83-.52c-2.7-.06-5.41,0-8.12,0a3.65,3.65,0,0,0-3,1.3,21.6,21.6,0,0,0-1.77,2.41c-1.61,2.58-3.16,5.19-4.74,7.78a7.65,7.65,0,0,1-.64.78l-.79-1.27c-1.76-2.87-3.54-5.73-5.27-8.62a4.67,4.67,0,0,0-4.36-2.39c-2.33,0-4.67,0-7,0a11.51,11.51,0,0,0-2.33.53,10.73,10.73,0,0,0,.88,2.21c3.74,5.41,7.5,10.8,11.33,16.15a1.64,1.64,0,0,1,0,2.26c-3.67,5.25-7.3,10.53-10.94,15.81-.7,1-1.45,2-2,3.12-.75,1.35-.46,1.78,1.09,1.79,2.92,0,5.84-.08,8.75,0a4.11,4.11,0,0,0,4-2.23c2-3.23,4-6.43,6-9.63.23-.36.49-.7.79-1.14l.73,1.11,6.45,10.24a3.15,3.15,0,0,0,3,1.64c3-.07,5.91,0,8.87,0a8.87,8.87,0,0,0,1.85-.44c-.19-.61-.35-1.24-.56-1.84a3.62,3.62,0,0,0-.47-.73l-5-7.21Zm111.36-21c-1.44.19-2.9.28-4.31.58a21.87,21.87,0,0,0-17.29,23.48c1,8.45,5.29,14.55,13,18,8,3.54,15.44,1.8,22.42-2.92a1.65,1.65,0,0,0,.57-2.49c-1.25-1.86-2.56-3.69-3.84-5.54a1.43,1.43,0,0,0-2.07-.43,25.47,25.47,0,0,1-2.48,1.17c-3,1.2-6.06,1.83-9.26.92-5.4-1.53-8.37-6.46-7.56-12.44a11.25,11.25,0,0,1,12.24-9.48,14.23,14.23,0,0,1,6.37,2.37c1.69,1.15,2.31,1,3.36-.8l2.56-4.43c.92-1.59.75-2.61-.76-3.6A23.89,23.89,0,0,0,964,543.59Zm72.07,21.95v4c0,4.87,0,9.74,0,14.61,0,1.83.56,2.34,2.29,2.35h6.74c1.95,0,2.54-.58,2.54-2.53q0-18.3,0-36.59c0-2.11-.75-2.83-2.89-2.84h-5.74c-2.48,0-3,.46-3,2.9Zm5.47-27a6.52,6.52,0,1,0,0-13A6.6,6.6,0,0,0,1035,532,6.51,6.51,0,0,0,1041.58,538.53Z" transform="translate(-776 -489)"/><path class="cls-2" d="M810.12,550c.39-1.48.73-2.68,1-3.89a2.05,2.05,0,0,1,2.35-1.73c1.42.06,2.83.1,4.25.17,2,.09,2.92.94,2.92,2.93q0,18.24,0,36.48a2.29,2.29,0,0,1-2.56,2.55c-1.79,0-3.58,0-5.37,0a2.11,2.11,0,0,1-2.31-1.83c-.21-1-.4-1.93-.68-3.32l-.62,1c-2.88,4.15-7.05,5.33-11.8,5-12.28-.77-19.24-10.68-19.38-21.12-.09-6,1.41-11.51,5.59-15.93,5.25-5.55,11.79-7.38,19.24-5.78a11.21,11.21,0,0,1,6,3.87C809.15,548.85,809.54,549.32,810.12,550Zm-.48,15.9c-.14-1.07-.21-2.15-.42-3.2a10,10,0,0,0-8-8.12,9.73,9.73,0,0,0-10.47,4.64,12.46,12.46,0,0,0,.39,13.68,8.78,8.78,0,0,0,6,3.91C804.07,578.08,809.59,573.21,809.64,565.88Z" transform="translate(-776 -489)"/><path class="cls-3" d="M1131.8,550c.37-1.41.66-2.56,1-3.72.41-1.53,1-1.93,2.61-1.86,1.38.07,2.75.07,4.12.14,2,.1,2.79,1,2.79,2.9q0,18.24,0,36.48a2.25,2.25,0,0,1-2.49,2.58c-1.79,0-3.58,0-5.37,0a2.12,2.12,0,0,1-2.37-1.92c-.12-.49-.19-1-.29-1.47s-.19-1-.28-1.46c-1,1.08-1.94,2.22-3,3.16-2.74,2.37-6.09,2.74-9.52,2.53-11.41-.68-19.14-9.56-19.33-21.15-.15-8.68,3-15.75,11-19.94,4.81-2.53,10-3.29,15.18-1.19,1.74.7,3.16,2.21,4.69,3.4A11.45,11.45,0,0,1,1131.8,550Zm-21.14,16a22.81,22.81,0,0,0,.38,2.82c1,4,3.25,7,7.39,7.94s7.73,0,10.42-3.42c2.41-3,2.8-6.57,2.13-10.29-1.27-7-8.38-10.69-14.64-7.45C1112.3,557.61,1110.85,561.32,1110.66,565.93Z" transform="translate(-776 -489)"/><path class="cls-3" d="M1016.53,550.14c.45-1.7.78-2.94,1.09-4.18a2,2,0,0,1,2.21-1.59c1.45,0,2.91.09,4.36.16,2,.1,2.86.93,2.86,3q0,18.18,0,36.35c0,1.86-.77,2.63-2.66,2.66-1.71,0-3.42,0-5.12,0a2.18,2.18,0,0,1-2.49-2.09c-.18-.85-.33-1.71-.51-2.57,0-.06-.09-.1.08.09-1.69,1.39-3.21,3.06-5.08,4.09-3.44,1.9-7.25,1.69-10.95.83a20.46,20.46,0,0,1-15.87-19c-.37-5.72.62-11,4-15.73,3.91-5.42,9.35-7.91,15.93-8.17a12.86,12.86,0,0,1,11.35,5.1C1016,549.32,1016.13,549.59,1016.53,550.14Zm-.44,15.72c-.12-1-.17-2-.38-3-.8-3.79-2.8-6.72-6.59-7.95A9.85,9.85,0,0,0,999,557c-3.87,3.42-4.68,10.6-1.77,15.31a9.43,9.43,0,0,0,6.44,4.51C1010.49,578.12,1016.05,573.19,1016.09,565.86Z" transform="translate(-776 -489)"/><path class="cls-2" d="M882.57,569.5a8.48,8.48,0,0,0,6,7.19,11.49,11.49,0,0,0,8.75-.43c1-.48,2-1,3-1.54,1.51-.86,2.08-.75,3,.67s1.81,3,2.77,4.45a1.85,1.85,0,0,1-.38,2.74,20.06,20.06,0,0,1-10.19,4.67C884,589.18,872.71,581,870.82,569c-2.17-13.66,9.08-25.73,21.7-25.36,12,.36,21.38,11.47,19.25,23.15-.37,2-1.17,2.68-3.22,2.68h-26Zm18.16-8.27c-.16-4.31-4-7.66-8.83-7.75-4.52-.1-9,3.64-9.32,7.75Z" transform="translate(-776 -489)"/><path class="cls-2" d="M1075.07,573.47l-6.35,10.11a5.57,5.57,0,0,1-1.13,1.63,5.41,5.41,0,0,1-2.58,1.23c-3.15.15-6.32.07-9.49,0-1.48,0-1.8-.45-1.08-1.71s1.7-2.65,2.6-3.95q5.16-7.51,10.36-15c.26-.38.5-.76.81-1.22l-6.42-9.19c-2-2.83-4-5.64-5.92-8.5a2.47,2.47,0,0,1-.47-1.78c.1-.32,1.07-.5,1.65-.52,2.54,0,5.08,0,7.62,0a4.57,4.57,0,0,1,4.26,2.32q2.68,4.44,5.41,8.84c.21.35.44.69.81,1.27,1.39-2.26,2.66-4.38,4-6.47,1-1.55,2-3.09,3-4.57a3.52,3.52,0,0,1,3.07-1.38c2.74,0,5.49,0,8.24,0,.57,0,1.42.2,1.62.58s-.16,1.18-.49,1.64c-3.92,5.59-7.88,11.15-11.83,16.71-.24.34-.46.69-.72,1.09q3.83,5.57,7.64,11.12l5.16,7.51a12.51,12.51,0,0,1,.74,1.15c.88,1.61.6,2.07-1.22,2.07-3,0-5.91-.06-8.87,0a3.37,3.37,0,0,1-3.23-1.68c-2.14-3.42-4.3-6.83-6.45-10.24Z" transform="translate(-776 -489)"/><path class="cls-2" d="M852.68,564.63l8,11.63,5,7.21a3.62,3.62,0,0,1,.47.73c.21.6.37,1.23.56,1.84a8.87,8.87,0,0,1-1.85.44c-3,0-5.91,0-8.87,0a3.15,3.15,0,0,1-3-1.64l-6.45-10.24-.73-1.11c-.3.44-.56.78-.79,1.14-2,3.2-4.05,6.4-6,9.63a4.11,4.11,0,0,1-4,2.23c-2.91-.11-5.83,0-8.75,0-1.55,0-1.84-.44-1.09-1.79.6-1.09,1.35-2.09,2-3.12,3.64-5.28,7.27-10.56,10.94-15.81a1.64,1.64,0,0,0,0-2.26c-3.83-5.35-7.59-10.74-11.33-16.15a10.73,10.73,0,0,1-.88-2.21,11.51,11.51,0,0,1,2.33-.53c2.33-.07,4.67,0,7,0a4.67,4.67,0,0,1,4.36,2.39c1.73,2.89,3.51,5.75,5.27,8.62l.79,1.27a7.65,7.65,0,0,0,.64-.78c1.58-2.59,3.13-5.2,4.74-7.78a21.6,21.6,0,0,1,1.77-2.41,3.65,3.65,0,0,1,3-1.3c2.71,0,5.42,0,8.12,0a7.29,7.29,0,0,1,1.83.52,6.3,6.3,0,0,1-.61,1.79c-3.82,5.45-7.69,10.87-11.55,16.3C853.31,563.68,853,564.13,852.68,564.63Z" transform="translate(-776 -489)"/><path class="cls-2" d="M964,543.59A23.89,23.89,0,0,1,977,548c1.51,1,1.68,2,.76,3.6L975.22,556c-1.05,1.8-1.67,1.95-3.36.8a14.23,14.23,0,0,0-6.37-2.37,11.25,11.25,0,0,0-12.24,9.48c-.81,6,2.16,10.91,7.56,12.44,3.2.91,6.27.28,9.26-.92a25.47,25.47,0,0,0,2.48-1.17,1.43,1.43,0,0,1,2.07.43c1.28,1.85,2.59,3.68,3.84,5.54a1.65,1.65,0,0,1-.57,2.49c-7,4.72-14.45,6.46-22.42,2.92-7.74-3.42-12-9.52-13-18a21.87,21.87,0,0,1,17.29-23.48C961.14,543.87,962.6,543.78,964,543.59Z" transform="translate(-776 -489)"/><path class="cls-2" d="M1036.11,565.54v-18.1c0-2.44.47-2.9,3-2.9h5.74c2.14,0,2.89.73,2.89,2.84q0,18.29,0,36.59c0,1.95-.59,2.53-2.54,2.53h-6.74c-1.73,0-2.28-.52-2.29-2.35,0-4.87,0-9.74,0-14.61Z" transform="translate(-776 -489)"/><path class="cls-4" d="M934,549.24l-4.17,1v7.15c1.92.44,1.92.44,1.92,2.43v25.24c0,1.72-.17,1.89-1.83,1.89-2.59,0-5.17,0-7.75,0-1.15,0-1.58-.47-1.58-1.56q0-13.19,0-26.36c0-1.32.77-1.63,2-1.49,0-2.38,0-4.62-.05-6.85,0-.27-.73-.66-1.16-.73a28,28,0,0,1-11.12-4.3l.27-2.07c.82.48,1.66.94,2.47,1.43a21.89,21.89,0,0,0,8.75,3.1,30.9,30.9,0,0,0,12.21-.82Zm-4.29,10.36h-7v20.78h7Zm-2.05-2.11v-7h-3v7Zm-5,25v2.42h7V582.5Z" transform="translate(-776 -489)"/><path class="cls-5" d="M934,549.24l0-1.87c11.12-3.82,17.76-11.47,19.6-23.13,1.72-10.87-4.22-22.48-13.93-27.71a29.14,29.14,0,0,0-17.61-3.2l-.27-2c2.22,0,4.44,0,6.67-.06A23.51,23.51,0,0,1,941.13,495c8.73,5.22,13.57,13,14.62,23.11,1.43,13.77-7.87,27.36-21.14,31C934.41,549.19,934.2,549.2,934,549.24Z" transform="translate(-776 -489)"/><path class="cls-6" d="M921.75,491.3l.27,2c-.69.15-1.38.28-2.06.44a27.68,27.68,0,0,0-17.87,40.68,30.46,30.46,0,0,0,8.44,9.21l-.27,2.07a28.5,28.5,0,0,1-13-17.93,29.67,29.67,0,0,1,24.19-36.51A2.09,2.09,0,0,1,921.75,491.3Z" transform="translate(-776 -489)"/><path class="cls-7" d="M1041.58,538.53A6.51,6.51,0,0,1,1035,532a6.58,6.58,0,1,1,13.16.29A6.52,6.52,0,0,1,1041.58,538.53Z" transform="translate(-776 -489)"/><path class="cls-8" d="M809.64,565.88c0,7.33-5.57,12.2-12.46,10.91a8.78,8.78,0,0,1-6-3.91,12.46,12.46,0,0,1-.39-13.68,9.73,9.73,0,0,1,10.47-4.64,10,10,0,0,1,8,8.12C809.43,563.73,809.5,564.81,809.64,565.88Z" transform="translate(-776 -489)"/><path class="cls-8" d="M1110.66,565.93c.19-4.61,1.64-8.32,5.68-10.4,6.26-3.24,13.37.44,14.64,7.45.67,3.72.28,7.25-2.13,10.29-2.69,3.38-6.35,4.35-10.42,3.42s-6.43-3.91-7.39-7.94A22.81,22.81,0,0,1,1110.66,565.93Z" transform="translate(-776 -489)"/><path class="cls-8" d="M1016.09,565.86c0,7.33-5.6,12.26-12.43,10.94a9.43,9.43,0,0,1-6.44-4.51c-2.91-4.71-2.1-11.89,1.77-15.31a9.85,9.85,0,0,1,10.13-2c3.79,1.23,5.79,4.16,6.59,7.95C1015.92,563.87,1016,564.87,1016.09,565.86Z" transform="translate(-776 -489)"/><path class="cls-8" d="M900.73,561.23H882.58c.27-4.11,4.8-7.85,9.32-7.75C896.7,553.57,900.57,556.92,900.73,561.23Z" transform="translate(-776 -489)"/><path class="cls-9" d="M910.53,543.66a30.46,30.46,0,0,1-8.44-9.21A27.68,27.68,0,0,1,920,493.77c.68-.16,1.37-.29,2.06-.44a29.14,29.14,0,0,1,17.61,3.2c9.71,5.23,15.65,16.84,13.93,27.71-1.84,11.66-8.48,19.31-19.6,23.13a30.9,30.9,0,0,1-12.21.82,21.89,21.89,0,0,1-8.75-3.1C912.19,544.6,911.35,544.14,910.53,543.66Zm11.2,2.69a24.88,24.88,0,0,0,16.44-2.52,26.08,26.08,0,0,0,4.39-43.47,24.48,24.48,0,0,0-13-5.46,27.76,27.76,0,0,0-7.78.12,4.91,4.91,0,0,0-.86.07,26,26,0,0,0-20.13,31.69C903.07,536.81,912,545.14,921.73,546.35Z" transform="translate(-776 -489)"/><path class="cls-10" d="M929.71,559.6v20.78h-7V559.6Z" transform="translate(-776 -489)"/><path class="cls-11" d="M927.66,557.49h-3v-7h3Z" transform="translate(-776 -489)"/><path class="cls-12" d="M922.68,582.5h7v2.42h-7Z" transform="translate(-776 -489)"/><path class="cls-13" d="M921.75,495a27.76,27.76,0,0,1,7.78-.12,24.48,24.48,0,0,1,13,5.46,26.08,26.08,0,0,1-4.39,43.47,24.88,24.88,0,0,1-16.44,2.52c0-.61,0-1.23,0-1.85.37,0,.75,0,1.12.06a22.88,22.88,0,0,0,14-2.34c9.16-4.84,13.8-12.58,13.25-22.88-.54-10-5.89-17-15.08-21a24.65,24.65,0,0,0-13.33-1.4Z" transform="translate(-776 -489)"/><path class="cls-14" d="M921.75,495v2a62.47,62.47,0,0,0-6.33,2.24c-16.08,7.69-18,30.51-3.51,40.91a28.2,28.2,0,0,0,9.84,4.38c0,.62,0,1.24,0,1.85-9.74-1.21-18.66-9.54-21-19.57a26,26,0,0,1,20.13-31.69A4.91,4.91,0,0,1,921.75,495Z" transform="translate(-776 -489)"/><path class="cls-8" d="M921.75,544.5a28.2,28.2,0,0,1-9.84-4.38c-14.5-10.4-12.57-33.22,3.51-40.91a62.47,62.47,0,0,1,6.33-2.24,24.65,24.65,0,0,1,13.33,1.4c9.19,4,14.54,11,15.08,21,.55,10.3-4.09,18-13.25,22.88a22.88,22.88,0,0,1-14,2.34C922.5,544.51,922.12,544.52,921.75,544.5Zm-3.5-35.5c-3.48,3.44-7,6.88-10.43,10.35a1.75,1.75,0,0,0,0,2.76c3.45,3.47,6.94,6.9,10.42,10.35,2.08,2.11,4.14,4.22,6.23,6.31,1.27,1.28,2.09,1.27,3.38,0l16.26-16.25c1.38-1.38,1.38-2.19,0-3.58l-11.57-11.57c-1.54-1.54-3.06-3.08-4.6-4.59-1.26-1.24-2.17-1.36-3.21-.34C922.55,504.59,920.41,506.8,918.25,509Z" transform="translate(-776 -489)"/><path class="cls-15" d="M918.25,509c2.16-2.2,4.3-4.41,6.49-6.57,1-1,2-.9,3.21.34,1.54,1.51,3.06,3.05,4.6,4.59l11.57,11.57c1.39,1.39,1.39,2.2,0,3.58l-16.26,16.25c-1.29,1.28-2.11,1.29-3.38,0-2.09-2.09-4.15-4.2-6.23-6.31l.71-2,7.12,7,16.68-16.77-16.48-16.56-5.13,5.17c1.32,1.31,2.8,2.72,4.2,4.2.38.41.85,1.14.72,1.52s-.93.66-1.49.84-1.33.17-2,.39a1.7,1.7,0,0,0-.89.9c-.26.83-.32,1.71-.52,2.57-.24,1.07-1,1.32-1.82.6a15.8,15.8,0,0,1-1.19-1.26l.78-1.83c.67.5.77,0,.76-.48,0-1.7.91-2.43,2.52-2.48a4.21,4.21,0,0,0,.67-.14l-3.65-3.47-.47.35C918.63,510.35,918.44,509.67,918.25,509Z" transform="translate(-776 -489)"/><path class="cls-16" d="M919,517.25l-.78,1.83L915,515.54,909.27,521a9.22,9.22,0,0,1,1.08.81q4.32,4.33,8.62,8.68l-.71,2c-3.48-3.45-7-6.88-10.42-10.35a1.75,1.75,0,0,1,0-2.76c3.45-3.47,6.95-6.91,10.43-10.35.19.67.38,1.35.58,2l-2.85,3Z" transform="translate(-776 -489)"/><path class="cls-8" d="M919,530.51q-4.31-4.35-8.62-8.68a9.22,9.22,0,0,0-1.08-.81l5.74-5.48,3.21,3.54a15.8,15.8,0,0,0,1.19,1.26c.83.72,1.58.47,1.82-.6.2-.86.26-1.74.52-2.57a1.7,1.7,0,0,1,.89-.9c.62-.22,1.33-.19,2-.39s1.34-.43,1.49-.84-.34-1.11-.72-1.52c-1.4-1.48-2.88-2.89-4.2-4.2l5.13-5.17,16.48,16.56-16.68,16.77Zm7.46,1.7c.08,0,.28-.05.38-.16,1-1,2.08-2,3-3.1.16-.18,0-.86-.2-1.07a1.13,1.13,0,0,0-1.08-.13,30,30,0,0,0-3,3C925,531.29,925.59,532.22,926.43,532.21Z" transform="translate(-776 -489)"/><path class="cls-17" d="M919,517.25l-3-3.19,2.85-3,.47-.35,3.65,3.47a4.21,4.21,0,0,1-.67.14c-1.61.05-2.53.78-2.52,2.48C919.77,517.28,919.67,517.75,919,517.25Z" transform="translate(-776 -489)"/><path class="cls-18" d="M926.43,532.21c-.84,0-1.4-.92-.89-1.51a30,30,0,0,1,3-3,1.13,1.13,0,0,1,1.08.13c.22.21.36.89.2,1.07-1,1.08-2,2.09-3,3.1C926.71,532.16,926.51,532.17,926.43,532.21Z" transform="translate(-776 -489)"/></svg>