<svg id="Camada_1" data-name="Camada 1" xmlns="http://www.w3.org/2000/svg" viewBox="0 0 375 107"><defs><style>.cls-1{fill:#fefefe;}.cls-2{fill:#cfcfcf;}.cls-3{fill:#cdcdcd;}.cls-4{fill:#dadada;}.cls-5{fill:#e7e7e7;}.cls-6{fill:#cecece;}.cls-7{fill:#d6d6d6;}.cls-8{fill:#d3d3d3;}.cls-9{fill:#d5d5d5;}.cls-10{fill:#d0d0d0;}.cls-11{fill:#e5e5e5;}.cls-12{fill:#f1f1f1;}</style></defs><path class="cls-1" d="M773,593V486h375V593Zm166-74.24.25.25.25.25.25.25.25.25.25.25.25.25.25.25.25.25.25.25v1l-.25.25,0,.1,0-.1.25-.25c.61-.34.61-.67,0-1l-.24-.25-.26-.25-.25-.25-.25-.25-.25-.25-.25-.25-.25-.25-.25-.25-.25-.25-.25-.25-.25-.25-.25-.25-.25-.26-.25-.25-.25-.25-.25-.25-.25-.25-.25-.25-.25-.25-.25-.25-.25-.25-.25-.25-.25-.25-.25-.25-.25-.25-.25-.25-.25-.25-.25-.25-.1,0,.1,0,.25.25.25.25.25.26.25.25.25.25.25.25.25.25.25.25.25.25.25.25.25.25.25.25.25.25.25.25.25.25.25.25.25.25.25.25Zm-8.74,14,.24-.26.25-.25L931,532l.25-.25.25-.25.25-.25L932,531l.25-.25.25-.25.25-.25L933,530l.25-.25.25-.25.25-.25L934,529l.25-.25.25-.25.25-.25L935,528l.25-.25.06-.11-.06.11L935,528l-.25.25-.25.25-.25.25L934,529l-.25.25-.25.25-.25.25L933,530l-.25.25-.25.25-.25.25L932,531l-.25.25-.25.25-.25.25L931,532l-.25.25-.25.25-.25.25-.06.11Zm-9,50.52H928a21.66,21.66,0,0,0-4.33-.24c-.8,0-1.6.15-2.4.24l-.31,2.19h.31ZM921,551l-.49-.22,0,.18.54,0c0,2,0,4,0,6,0,.79-.06,1.37-1,1.51l1.23-.11c0-2,0-3.86,0-5.73A13.71,13.71,0,0,0,921,551Zm2.25,7.25,2.68.31,0-.3h-2.7v-7H926v-.11h-3c0,1.82,0,3.52,0,5.23C923,557,923.18,557.63,923.26,558.27Zm-2,2.27H928v-.25h-6.7a4.73,4.73,0,0,0-.23,1q0,9.45,0,18.9a4.73,4.73,0,0,0,.23,1H928V581h-6.69Zm113.45-13.47h-.13v38.45h.13Zm11.34,38.66.13,0V547.29h-.13ZM819.21,547.55h-.13v37.69h.13ZM1025.57,585l.12,0V547.82h-.12Zm115.26,0,.12,0V547.83h-.12ZM919.22,559.32h-.13v27.42h.13Zm-37.93,2.75,0,.12H899v-.12Zm-27.67-16.74-.11.12h9.75v-.12Zm229.47,0,0,.12h9.47v-.12Zm-28.27,0,0,.13H1064v-.13Zm-220.3.13v-.12h-9v.12Zm201.55-.13v.12h8.41v-.12Z" transform="translate(-773 -486)"/><path class="cls-2" d="M1034.73,547.07v38.44h-.13V547.06Z" transform="translate(-773 -486)"/><path class="cls-2" d="M1046.07,585.73V547.29h.13v38.46Z" transform="translate(-773 -486)"/><path class="cls-3" d="M819.21,547.55v37.7h-.13V547.56Z" transform="translate(-773 -486)"/><path class="cls-4" d="M1025.57,585V547.82h.12V585Z" transform="translate(-773 -486)"/><path class="cls-5" d="M1140.83,585V547.83h.12V585Z" transform="translate(-773 -486)"/><path class="cls-6" d="M919.22,559.32v27.43h-.13V559.33Z" transform="translate(-773 -486)"/><path class="cls-2" d="M921.25,581.27a4.73,4.73,0,0,1-.23-1q0-9.45,0-18.9a4.73,4.73,0,0,1,.23-1l0,.25V581Z" transform="translate(-773 -486)"/><path class="cls-7" d="M881.29,562.07H899v.12H881.31Z" transform="translate(-773 -486)"/><path class="cls-2" d="M853.62,545.33h9.64v.12h-9.75Z" transform="translate(-773 -486)"/><path class="cls-8" d="M923.26,558.27c-.08-.64-.22-1.27-.24-1.91,0-1.71,0-3.41,0-5.23h3v.11h-2.74v7Z" transform="translate(-773 -486)"/><path class="cls-6" d="M1083.09,545.32h9.43v.12h-9.47Z" transform="translate(-773 -486)"/><path class="cls-2" d="M1054.82,545.32H1064v.13h-9.16Z" transform="translate(-773 -486)"/><ellipse class="cls-2" cx="57.01" cy="59.39" rx="6.37" ry="0.09"/><path class="cls-9" d="M1036.07,545.32h8.41v.12h-8.41Z" transform="translate(-773 -486)"/><path class="cls-10" d="M921,551a13.71,13.71,0,0,1,.24,1.67c0,1.87,0,3.74,0,5.73l-1.23.11c.94-.14,1-.72,1-1.51,0-2,0-4,0-6Z" transform="translate(-773 -486)"/><path class="cls-11" d="M921.28,560.54l0-.25H928v.25Z" transform="translate(-773 -486)"/><path class="cls-11" d="M921.25,581.27l0-.25H928v.25Z" transform="translate(-773 -486)"/><path class="cls-9" d="M921.26,583.29c.8-.09,1.6-.22,2.4-.24a21.66,21.66,0,0,1,4.33.24Z" transform="translate(-773 -486)"/><path class="cls-8" d="M923.26,558.28H926l0,.3-2.68-.31Z" transform="translate(-773 -486)"/><path class="cls-9" d="M921.26,583.29v2.2H921c.11-.73.21-1.46.31-2.19Z" transform="translate(-773 -486)"/><path class="cls-12" d="M941.26,522v-1h0c.61.33.61.66,0,1Z" transform="translate(-773 -486)"/><path class="cls-10" d="M921,551l-.54,0,0-.18.49.22Z" transform="translate(-773 -486)"/><path class="cls-12" d="M939.26,519l.25.25h0l-.25-.25Z" transform="translate(-773 -486)"/><path class="cls-12" d="M939.76,519.51l-.25-.25h0l.25.25Z" transform="translate(-773 -486)"/><path class="cls-12" d="M940,519.76l-.25-.25h0l.25.25Z" transform="translate(-773 -486)"/><path class="cls-12" d="M940.26,520l-.25-.25h0l.25.25Z" transform="translate(-773 -486)"/><path class="cls-12" d="M940.51,520.26l-.25-.25h0l.25.25Z" transform="translate(-773 -486)"/><path class="cls-12" d="M940.51,520.26l.25.25h0l-.25-.25Z" transform="translate(-773 -486)"/><path class="cls-12" d="M940.76,520.51l.26.25h0l-.25-.25Z" transform="translate(-773 -486)"/><path class="cls-12" d="M941,520.76l.24.25h0l-.25-.25Z" transform="translate(-773 -486)"/><path class="cls-12" d="M941,522.26l.25-.25h0l-.25.25Z" transform="translate(-773 -486)"/><path class="cls-12" d="M941,522.26l0,.1,0-.1Z" transform="translate(-773 -486)"/><path class="cls-12" d="M935.26,527.76l.06-.11-.06.11Z" transform="translate(-773 -486)"/><path class="cls-12" d="M935.26,527.76,935,528h0l.25-.25Z" transform="translate(-773 -486)"/><path class="cls-12" d="M934.76,528.26,935,528h0l-.25.25Z" transform="translate(-773 -486)"/><path class="cls-12" d="M934.51,528.51l.25-.25h0l-.25.25Z" transform="translate(-773 -486)"/><path class="cls-12" d="M935.76,515.5l.25.25h0l-.25-.25Z" transform="translate(-773 -486)"/><path class="cls-12" d="M934,529l.25-.25h0L934,529Z" transform="translate(-773 -486)"/><path class="cls-12" d="M933.76,529.26,934,529h0l-.25.25Z" transform="translate(-773 -486)"/><path class="cls-12" d="M933.76,529.26l-.25.25h0l.25-.25Z" transform="translate(-773 -486)"/><path class="cls-12" d="M933.51,529.51l-.25.25h0l.25-.25Z" transform="translate(-773 -486)"/><path class="cls-12" d="M933,530l.25-.25h0L933,530Z" transform="translate(-773 -486)"/><path class="cls-12" d="M933,530l-.25.25h0L933,530Z" transform="translate(-773 -486)"/><path class="cls-12" d="M932.76,530.26l-.25.25h0l.25-.25Z" transform="translate(-773 -486)"/><path class="cls-12" d="M932.26,530.76l.25-.25h0l-.25.25Z" transform="translate(-773 -486)"/><path class="cls-12" d="M932,531l.25-.25h0L932,531Z" transform="translate(-773 -486)"/><path class="cls-12" d="M931.76,531.26,932,531h0l-.25.25Z" transform="translate(-773 -486)"/><path class="cls-12" d="M931.51,531.51l.25-.25h0l-.25.25Z" transform="translate(-773 -486)"/><path class="cls-12" d="M931.51,531.51l-.25.25h0l.25-.25Z" transform="translate(-773 -486)"/><path class="cls-12" d="M931.26,531.76,931,532h0l.25-.25Z" transform="translate(-773 -486)"/><path class="cls-12" d="M930.76,532.26,931,532h0l-.25.25Z" transform="translate(-773 -486)"/><path class="cls-12" d="M930.51,532.51l.25-.25h0l-.25.25Z" transform="translate(-773 -486)"/><path class="cls-12" d="M930.26,532.76l.25-.25h0l-.24.26Z" transform="translate(-773 -486)"/><path class="cls-12" d="M930.27,532.77l-.07.1.06-.11Z" transform="translate(-773 -486)"/><path class="cls-12" d="M934.26,514l-.1,0,.1,0Z" transform="translate(-773 -486)"/><path class="cls-12" d="M934.26,514l.25.25h0l-.25-.25Z" transform="translate(-773 -486)"/><path class="cls-12" d="M934.51,514.25l.25.25h0l-.25-.26Z" transform="translate(-773 -486)"/><path class="cls-12" d="M935,514.76l-.25-.25h0l.25.25Z" transform="translate(-773 -486)"/><path class="cls-12" d="M935,514.75l.25.25h0l-.25-.25Z" transform="translate(-773 -486)"/><path class="cls-12" d="M935.26,515l.25.25h0l-.25-.25Z" transform="translate(-773 -486)"/><path class="cls-12" d="M935.76,515.51l-.25-.25h0l.25.25Z" transform="translate(-773 -486)"/><path class="cls-12" d="M936,515.75l.25.25h0l-.25-.25Z" transform="translate(-773 -486)"/><path class="cls-12" d="M936.51,516.26l-.25-.25h0l.25.25Z" transform="translate(-773 -486)"/><path class="cls-12" d="M936.51,516.25l.25.25h0l-.25-.25Z" transform="translate(-773 -486)"/><path class="cls-12" d="M937,516.76l-.25-.25h0l.25.25Z" transform="translate(-773 -486)"/><path class="cls-12" d="M934.51,528.51l-.25.25h0l.25-.25Z" transform="translate(-773 -486)"/><path class="cls-12" d="M937.26,517l-.25-.25h0l.25.25Z" transform="translate(-773 -486)"/><path class="cls-12" d="M937.26,517l.25.25h0l-.25-.25Z" transform="translate(-773 -486)"/><path class="cls-12" d="M937.51,517.25l.25.25h0l-.25-.25Z" transform="translate(-773 -486)"/><path class="cls-12" d="M938,517.76l-.25-.25h0l.25.25Z" transform="translate(-773 -486)"/><path class="cls-12" d="M938.26,518l-.25-.25h0l.25.26Z" transform="translate(-773 -486)"/><path class="cls-12" d="M938.26,518l.25.25h0l-.25-.25Z" transform="translate(-773 -486)"/><path class="cls-12" d="M938.76,518.51l-.25-.25h0l.25.25Z" transform="translate(-773 -486)"/><path class="cls-12" d="M938.76,518.51l.25.25h0l-.25-.25Z" transform="translate(-773 -486)"/><path class="cls-12" d="M939,518.76l.25.25h0l-.25-.25Z" transform="translate(-773 -486)"/></svg>